<?xml version="1.0" encoding="UTF-8"?>
<svg xmlns="http://www.w3.org/2000/svg" version="1.1" viewBox="0 0 15.1 15.1">
  <defs>
    <style>
      .cls-1 {
        fill-rule: evenodd;
      }

      .cls-1, .cls-2 {
        fill: #fff;
      }
    </style>
  </defs>
  <!-- Generator: Adobe Illustrator 28.7.1, SVG Export Plug-In . SVG Version: 1.2.0 Build 142)  -->
  <g>
    <g id="Layer_1">
      <g id="Layer_1-2" data-name="Layer_1">
        <g>
          <g id="Layer_1-2-3">
            <g id="layer-blur--layer-blur-dots-graphic-effect-2">
              <path id="Union-2" class="cls-1" d="M.7,0h-.7v2.2h2.2V0H.7ZM5,0h-.7v2.2h2.2V0h-1.5ZM5,4.3h-.7v2.2h2.2v-2.2h-1.5ZM8.6,0h2.2v2.2h-2.2V0ZM8.6,4.3h2.2v2.2h-2.2v-2.2ZM.7,4.3h-.7v2.2h2.2v-2.2H.7ZM12.9,0h2.2v2.2h-2.2V0Z"/>
            </g>
          </g>
          <polygon class="cls-1" points="5 8.7 4.3 8.7 4.3 10.8 6.4 10.8 6.4 8.7 5 8.7"/>
          <rect class="cls-2" x="8.6" y="8.7" width="2.2" height="2.2"/>
          <rect class="cls-2" y="8.7" width="2.2" height="2.2"/>
          <polygon class="cls-1" points=".7 13 0 13 0 15.1 2.1 15.1 2.1 13 .7 13"/>
          <rect class="cls-2" x="12.9" y="8.7" width="2.2" height="2.2"/>
          <rect class="cls-2" x="4.3" y="13" width="2.1" height="2.1"/>
        </g>
      </g>
    </g>
  </g>
</svg>